<?xml version="1.0" encoding="UTF-8" standalone="no"?>
<!DOCTYPE svg PUBLIC "-//W3C//DTD SVG 1.1//EN"
 "http://www.w3.org/Graphics/SVG/1.1/DTD/svg11.dtd">
<!-- Generated by graphviz version 2.40.1 (20161225.0304)
 -->
<!-- Title: dependencies Pages: 1 -->
<svg width="3548pt" height="211pt"
 viewBox="0.00 0.00 3548.00 211.00" xmlns="http://www.w3.org/2000/svg" xmlns:xlink="http://www.w3.org/1999/xlink">
<g id="graph0" class="graph" transform="scale(1 1) rotate(0) translate(4 207)">
<title>dependencies</title>
<polygon fill="#ffffff" stroke="transparent" points="-4,4 -4,-207 3544,-207 3544,4 -4,4"/>
<text text-anchor="start" x="1749.0091" y="-42.4" font-family="sans-serif" font-weight="bold" font-size="14.00" fill="#000000">Legend</text>
<polygon fill="#ffffb3" stroke="transparent" points="1536,-10 1536,-30 1556,-30 1556,-10 1536,-10"/>
<text text-anchor="start" x="1559.629" y="-15.4" font-family="sans-serif" font-size="14.00" fill="#000000"> &#160;Declarations</text>
<polygon fill="#8dd3c7" stroke="transparent" points="1649,-10 1649,-30 1669,-30 1669,-10 1649,-10"/>
<text text-anchor="start" x="1672.7251" y="-15.4" font-family="sans-serif" font-size="14.00" fill="#000000"> &#160;Module</text>
<polygon fill="#80b1d3" stroke="transparent" points="1735,-10 1735,-30 1755,-30 1755,-10 1735,-10"/>
<text text-anchor="start" x="1758.7812" y="-15.4" font-family="sans-serif" font-size="14.00" fill="#000000"> &#160;Bootstrap</text>
<polygon fill="#fdb462" stroke="transparent" points="1832,-10 1832,-30 1852,-30 1852,-10 1832,-10"/>
<text text-anchor="start" x="1855.6732" y="-15.4" font-family="sans-serif" font-size="14.00" fill="#000000"> &#160;Providers</text>
<polygon fill="#fb8072" stroke="transparent" points="1928,-10 1928,-30 1948,-30 1948,-10 1928,-10"/>
<text text-anchor="start" x="1951.7258" y="-15.4" font-family="sans-serif" font-size="14.00" fill="#000000"> &#160;Exports</text>
<g id="clust1" class="cluster">
<title>cluster_StreamsModule</title>
<polygon fill="none" stroke="#000000" stroke-dasharray="1,5" points="8,-70 8,-195 3532,-195 3532,-70 8,-70"/>
</g>
<g id="clust2" class="cluster">
<title>cluster_StreamsModule_declarations</title>
<polygon fill="none" stroke="#000000" points="1270,-78 1270,-130 3524,-130 3524,-78 1270,-78"/>
</g>
<g id="clust15" class="cluster">
<title>cluster_StreamsModule_imports</title>
<polygon fill="none" stroke="#000000" points="874,-78 874,-130 1262,-130 1262,-78 874,-78"/>
</g>
<g id="clust18" class="cluster">
<title>cluster_StreamsModule_providers</title>
<polygon fill="none" stroke="#000000" points="16,-78 16,-130 866,-130 866,-78 16,-78"/>
</g>
<!-- StreamsComponent -->
<g id="node1" class="node">
<title>StreamsComponent</title>
<polygon fill="#ffffb3" stroke="#000000" points="3516.4313,-122 3389.5687,-122 3389.5687,-86 3516.4313,-86 3516.4313,-122"/>
<text text-anchor="middle" x="3453" y="-99.8" font-family="Times,serif" font-size="14.00" fill="#000000">StreamsComponent</text>
</g>
<!-- StreamsModule -->
<g id="node13" class="node">
<title>StreamsModule</title>
<polygon fill="#8dd3c7" stroke="#000000" points="1719.1486,-187 1716.1486,-191 1695.1486,-191 1692.1486,-187 1614.8514,-187 1614.8514,-151 1719.1486,-151 1719.1486,-187"/>
<text text-anchor="middle" x="1667" y="-164.8" font-family="Times,serif" font-size="14.00" fill="#000000">StreamsModule</text>
</g>
<!-- StreamsComponent&#45;&gt;StreamsModule -->
<g id="edge1" class="edge">
<title>StreamsComponent&#45;&gt;StreamsModule</title>
<path fill="none" stroke="#000000" d="M3453,-122.1532C3453,-145.7566 3453,-184 3453,-184 3453,-184 1729.4843,-184 1729.4843,-184"/>
<polygon fill="#000000" stroke="#000000" points="1729.4844,-180.5001 1719.4843,-184 1729.4843,-187.5001 1729.4844,-180.5001"/>
</g>
<!-- StreamCreateComponent -->
<g id="node2" class="node">
<title>StreamCreateComponent</title>
<polygon fill="#ffffb3" stroke="#000000" points="3371.5183,-122 3214.4817,-122 3214.4817,-86 3371.5183,-86 3371.5183,-122"/>
<text text-anchor="middle" x="3293" y="-99.8" font-family="Times,serif" font-size="14.00" fill="#000000">StreamCreateComponent</text>
</g>
<!-- StreamCreateComponent&#45;&gt;StreamsModule -->
<g id="edge2" class="edge">
<title>StreamCreateComponent&#45;&gt;StreamsModule</title>
<path fill="none" stroke="#000000" d="M3293,-122.0109C3293,-144.4852 3293,-180 3293,-180 3293,-180 1729.2583,-180 1729.2583,-180"/>
<polygon fill="#000000" stroke="#000000" points="1729.2584,-176.5001 1719.2583,-180 1729.2583,-183.5001 1729.2584,-176.5001"/>
</g>
<!-- StreamDefinitionsComponent -->
<g id="node3" class="node">
<title>StreamDefinitionsComponent</title>
<polygon fill="#ffffb3" stroke="#000000" points="3195.9748,-122 3012.0252,-122 3012.0252,-86 3195.9748,-86 3195.9748,-122"/>
<text text-anchor="middle" x="3104" y="-99.8" font-family="Times,serif" font-size="14.00" fill="#000000">StreamDefinitionsComponent</text>
</g>
<!-- StreamDefinitionsComponent&#45;&gt;StreamsModule -->
<g id="edge3" class="edge">
<title>StreamDefinitionsComponent&#45;&gt;StreamsModule</title>
<path fill="none" stroke="#000000" d="M3104,-122.0449C3104,-143.6623 3104,-177 3104,-177 3104,-177 1729.4194,-177 1729.4194,-177"/>
<polygon fill="#000000" stroke="#000000" points="1729.4194,-173.5001 1719.4194,-177 1729.4194,-180.5001 1729.4194,-173.5001"/>
</g>
<!-- StreamDetailsComponent -->
<g id="node4" class="node">
<title>StreamDetailsComponent</title>
<polygon fill="#ffffb3" stroke="#000000" points="2994.1386,-122 2833.8614,-122 2833.8614,-86 2994.1386,-86 2994.1386,-122"/>
<text text-anchor="middle" x="2914" y="-99.8" font-family="Times,serif" font-size="14.00" fill="#000000">StreamDetailsComponent</text>
</g>
<!-- StreamDetailsComponent&#45;&gt;StreamsModule -->
<g id="edge4" class="edge">
<title>StreamDetailsComponent&#45;&gt;StreamsModule</title>
<path fill="none" stroke="#000000" d="M2914,-122.1289C2914,-142.5724 2914,-173 2914,-173 2914,-173 1729.3893,-173 1729.3893,-173"/>
<polygon fill="#000000" stroke="#000000" points="1729.3893,-169.5001 1719.3893,-173 1729.3893,-176.5001 1729.3893,-169.5001"/>
</g>
<!-- StreamDeployComponent -->
<g id="node5" class="node">
<title>StreamDeployComponent</title>
<polygon fill="#ffffb3" stroke="#000000" points="2816.1979,-122 2653.8021,-122 2653.8021,-86 2816.1979,-86 2816.1979,-122"/>
<text text-anchor="middle" x="2735" y="-99.8" font-family="Times,serif" font-size="14.00" fill="#000000">StreamDeployComponent</text>
</g>
<!-- StreamDeployComponent&#45;&gt;StreamsModule -->
<g id="edge5" class="edge">
<title>StreamDeployComponent&#45;&gt;StreamsModule</title>
<path fill="none" stroke="#000000" d="M2735,-122.1061C2735,-141.3391 2735,-169 2735,-169 2735,-169 1729.2348,-169 1729.2348,-169"/>
<polygon fill="#000000" stroke="#000000" points="1729.2349,-165.5001 1719.2348,-169 1729.2348,-172.5001 1729.2349,-165.5001"/>
</g>
<!-- StreamCreateDialogComponent -->
<g id="node6" class="node">
<title>StreamCreateDialogComponent</title>
<polygon fill="#ffffb3" stroke="#000000" points="2635.6204,-122 2440.3796,-122 2440.3796,-86 2635.6204,-86 2635.6204,-122"/>
<text text-anchor="middle" x="2538" y="-99.8" font-family="Times,serif" font-size="14.00" fill="#000000">StreamCreateDialogComponent</text>
</g>
<!-- StreamCreateDialogComponent&#45;&gt;StreamsModule -->
<g id="edge6" class="edge">
<title>StreamCreateDialogComponent&#45;&gt;StreamsModule</title>
<path fill="none" stroke="#000000" d="M2538,-122.2667C2538,-140.5552 2538,-166 2538,-166 2538,-166 1729.1996,-166 1729.1996,-166"/>
<polygon fill="#000000" stroke="#000000" points="1729.1996,-162.5001 1719.1996,-166 1729.1996,-169.5001 1729.1996,-162.5001"/>
</g>
<!-- StreamPropertiesDialogComponent -->
<g id="node7" class="node">
<title>StreamPropertiesDialogComponent</title>
<polygon fill="#ffffb3" stroke="#000000" points="2421.8473,-122 2206.1527,-122 2206.1527,-86 2421.8473,-86 2421.8473,-122"/>
<text text-anchor="middle" x="2314" y="-99.8" font-family="Times,serif" font-size="14.00" fill="#000000">StreamPropertiesDialogComponent</text>
</g>
<!-- StreamPropertiesDialogComponent&#45;&gt;StreamsModule -->
<g id="edge7" class="edge">
<title>StreamPropertiesDialogComponent&#45;&gt;StreamsModule</title>
<path fill="none" stroke="#000000" d="M2314,-122.0336C2314,-139.0597 2314,-162 2314,-162 2314,-162 1729.3987,-162 1729.3987,-162"/>
<polygon fill="#000000" stroke="#000000" points="1729.3987,-158.5001 1719.3987,-162 1729.3986,-165.5001 1729.3987,-158.5001"/>
</g>
<!-- NodeComponent -->
<g id="node8" class="node">
<title>NodeComponent</title>
<polygon fill="#ffffb3" stroke="#000000" points="2187.6541,-122 2076.3459,-122 2076.3459,-86 2187.6541,-86 2187.6541,-122"/>
<text text-anchor="middle" x="2132" y="-99.8" font-family="Times,serif" font-size="14.00" fill="#000000">NodeComponent</text>
</g>
<!-- NodeComponent&#45;&gt;StreamsModule -->
<g id="edge8" class="edge">
<title>NodeComponent&#45;&gt;StreamsModule</title>
<path fill="none" stroke="#000000" d="M2132,-122.0091C2132,-138.0494 2132,-159 2132,-159 2132,-159 1729.4375,-159 1729.4375,-159"/>
<polygon fill="#000000" stroke="#000000" points="1729.4375,-155.5001 1719.4375,-159 1729.4375,-162.5001 1729.4375,-155.5001"/>
</g>
<!-- StreamGraphDefinitionComponent -->
<g id="node9" class="node">
<title>StreamGraphDefinitionComponent</title>
<polygon fill="#ffffb3" stroke="#000000" points="2057.5126,-122 1844.4874,-122 1844.4874,-86 2057.5126,-86 2057.5126,-122"/>
<text text-anchor="middle" x="1951" y="-99.8" font-family="Times,serif" font-size="14.00" fill="#000000">StreamGraphDefinitionComponent</text>
</g>
<!-- StreamGraphDefinitionComponent&#45;&gt;StreamsModule -->
<g id="edge9" class="edge">
<title>StreamGraphDefinitionComponent&#45;&gt;StreamsModule</title>
<path fill="none" stroke="#000000" d="M1951,-122.1243C1951,-136.7832 1951,-155 1951,-155 1951,-155 1729.4209,-155 1729.4209,-155"/>
<polygon fill="#000000" stroke="#000000" points="1729.421,-151.5001 1719.4209,-155 1729.4209,-158.5001 1729.421,-151.5001"/>
</g>
<!-- InstanceDotComponent -->
<g id="node10" class="node">
<title>InstanceDotComponent</title>
<polygon fill="#ffffb3" stroke="#000000" points="1826.4692,-122 1677.5308,-122 1677.5308,-86 1826.4692,-86 1826.4692,-122"/>
<text text-anchor="middle" x="1752" y="-99.8" font-family="Times,serif" font-size="14.00" fill="#000000">InstanceDotComponent</text>
</g>
<!-- InstanceDotComponent&#45;&gt;StreamsModule -->
<g id="edge10" class="edge">
<title>InstanceDotComponent&#45;&gt;StreamsModule</title>
<path fill="none" stroke="#000000" d="M1698.4197,-122.1061C1698.4197,-122.1061 1698.4197,-140.991 1698.4197,-140.991"/>
<polygon fill="#000000" stroke="#000000" points="1694.9198,-140.9909 1698.4197,-150.991 1701.9198,-140.991 1694.9198,-140.9909"/>
</g>
<!-- MessageRateComponent -->
<g id="node11" class="node">
<title>MessageRateComponent</title>
<polygon fill="#ffffb3" stroke="#000000" points="1659.9664,-122 1504.0336,-122 1504.0336,-86 1659.9664,-86 1659.9664,-122"/>
<text text-anchor="middle" x="1582" y="-99.8" font-family="Times,serif" font-size="14.00" fill="#000000">MessageRateComponent</text>
</g>
<!-- MessageRateComponent&#45;&gt;StreamsModule -->
<g id="edge11" class="edge">
<title>MessageRateComponent&#45;&gt;StreamsModule</title>
<path fill="none" stroke="#000000" d="M1637.3296,-122.1061C1637.3296,-122.1061 1637.3296,-140.991 1637.3296,-140.991"/>
<polygon fill="#000000" stroke="#000000" points="1633.8297,-140.9909 1637.3296,-150.991 1640.8297,-140.991 1633.8297,-140.9909"/>
</g>
<!-- DeploymentPropertiesComponent -->
<g id="node12" class="node">
<title>DeploymentPropertiesComponent</title>
<polygon fill="#ffffb3" stroke="#000000" points="1485.799,-122 1278.201,-122 1278.201,-86 1485.799,-86 1485.799,-122"/>
<text text-anchor="middle" x="1382" y="-99.8" font-family="Times,serif" font-size="14.00" fill="#000000">DeploymentPropertiesComponent</text>
</g>
<!-- DeploymentPropertiesComponent&#45;&gt;StreamsModule -->
<g id="edge12" class="edge">
<title>DeploymentPropertiesComponent&#45;&gt;StreamsModule</title>
<path fill="none" stroke="#000000" d="M1382,-122.1243C1382,-136.7832 1382,-155 1382,-155 1382,-155 1604.7266,-155 1604.7266,-155"/>
<polygon fill="#000000" stroke="#000000" points="1604.7266,-158.5001 1614.7266,-155 1604.7266,-151.5001 1604.7266,-158.5001"/>
</g>
<!-- StreamsRoutingModule -->
<g id="node14" class="node">
<title>StreamsRoutingModule</title>
<polygon fill="#8dd3c7" stroke="#000000" points="1253.766,-122 1250.766,-126 1229.766,-126 1226.766,-122 1104.234,-122 1104.234,-86 1253.766,-86 1253.766,-122"/>
<text text-anchor="middle" x="1179" y="-99.8" font-family="Times,serif" font-size="14.00" fill="#000000">StreamsRoutingModule</text>
</g>
<!-- StreamsRoutingModule&#45;&gt;StreamsModule -->
<g id="edge13" class="edge">
<title>StreamsRoutingModule&#45;&gt;StreamsModule</title>
<path fill="none" stroke="#000000" d="M1179,-122.0091C1179,-138.0494 1179,-159 1179,-159 1179,-159 1604.7755,-159 1604.7755,-159"/>
<polygon fill="#000000" stroke="#000000" points="1604.7755,-162.5001 1614.7755,-159 1604.7754,-155.5001 1604.7755,-162.5001"/>
</g>
<!-- SharedModule -->
<g id="node15" class="node">
<title>SharedModule</title>
<polygon fill="#8dd3c7" stroke="#000000" points="1086.4231,-122 1083.4231,-126 1062.4231,-126 1059.4231,-122 987.5769,-122 987.5769,-86 1086.4231,-86 1086.4231,-122"/>
<text text-anchor="middle" x="1037" y="-99.8" font-family="Times,serif" font-size="14.00" fill="#000000">SharedModule</text>
</g>
<!-- SharedModule&#45;&gt;StreamsModule -->
<g id="edge14" class="edge">
<title>SharedModule&#45;&gt;StreamsModule</title>
<path fill="none" stroke="#000000" d="M1037,-122.0336C1037,-139.0597 1037,-162 1037,-162 1037,-162 1604.6396,-162 1604.6396,-162"/>
<polygon fill="#000000" stroke="#000000" points="1604.6396,-165.5001 1614.6396,-162 1604.6396,-158.5001 1604.6396,-165.5001"/>
</g>
<!-- AuthModule -->
<g id="node16" class="node">
<title>AuthModule</title>
<polygon fill="#8dd3c7" stroke="#000000" points="969.5482,-122 966.5482,-126 945.5482,-126 942.5482,-122 882.4518,-122 882.4518,-86 969.5482,-86 969.5482,-122"/>
<text text-anchor="middle" x="926" y="-99.8" font-family="Times,serif" font-size="14.00" fill="#000000">AuthModule</text>
</g>
<!-- AuthModule&#45;&gt;StreamsModule -->
<g id="edge15" class="edge">
<title>AuthModule&#45;&gt;StreamsModule</title>
<path fill="none" stroke="#000000" d="M926,-122.2667C926,-140.5552 926,-166 926,-166 926,-166 1604.5991,-166 1604.5991,-166"/>
<polygon fill="#000000" stroke="#000000" points="1604.5991,-169.5001 1614.5991,-166 1604.5991,-162.5001 1604.5991,-169.5001"/>
</g>
<!-- StreamsService -->
<g id="node17" class="node">
<title>StreamsService</title>
<ellipse fill="#fdb462" stroke="#000000" cx="787" cy="-104" rx="71.1998" ry="18"/>
<text text-anchor="middle" x="787" y="-99.8" font-family="Times,serif" font-size="14.00" fill="#000000">StreamsService</text>
</g>
<!-- StreamsService&#45;&gt;StreamsModule -->
<g id="edge16" class="edge">
<title>StreamsService&#45;&gt;StreamsModule</title>
<path fill="none" stroke="#000000" d="M787,-122.1061C787,-141.3391 787,-169 787,-169 787,-169 1604.5874,-169 1604.5874,-169"/>
<polygon fill="#000000" stroke="#000000" points="1604.5874,-172.5001 1614.5874,-169 1604.5873,-165.5001 1604.5874,-172.5001"/>
</g>
<!-- MetamodelService -->
<g id="node18" class="node">
<title>MetamodelService</title>
<ellipse fill="#fdb462" stroke="#000000" cx="614" cy="-104" rx="83.945" ry="18"/>
<text text-anchor="middle" x="614" y="-99.8" font-family="Times,serif" font-size="14.00" fill="#000000">MetamodelService</text>
</g>
<!-- MetamodelService&#45;&gt;StreamsModule -->
<g id="edge17" class="edge">
<title>MetamodelService&#45;&gt;StreamsModule</title>
<path fill="none" stroke="#000000" d="M614,-122.1289C614,-142.5724 614,-173 614,-173 614,-173 1604.7816,-173 1604.7816,-173"/>
<polygon fill="#000000" stroke="#000000" points="1604.7816,-176.5001 1614.7816,-173 1604.7815,-169.5001 1604.7816,-176.5001"/>
</g>
<!-- RenderService -->
<g id="node19" class="node">
<title>RenderService</title>
<ellipse fill="#fdb462" stroke="#000000" cx="444" cy="-104" rx="67.7548" ry="18"/>
<text text-anchor="middle" x="444" y="-99.8" font-family="Times,serif" font-size="14.00" fill="#000000">RenderService</text>
</g>
<!-- RenderService&#45;&gt;StreamsModule -->
<g id="edge18" class="edge">
<title>RenderService&#45;&gt;StreamsModule</title>
<path fill="none" stroke="#000000" d="M444,-122.0449C444,-143.6623 444,-177 444,-177 444,-177 1604.8405,-177 1604.8405,-177"/>
<polygon fill="#000000" stroke="#000000" points="1604.8405,-180.5001 1614.8405,-177 1604.8404,-173.5001 1604.8405,-180.5001"/>
</g>
<!-- EditorService -->
<g id="node20" class="node">
<title>EditorService</title>
<ellipse fill="#fdb462" stroke="#000000" cx="294" cy="-104" rx="64.261" ry="18"/>
<text text-anchor="middle" x="294" y="-99.8" font-family="Times,serif" font-size="14.00" fill="#000000">EditorService</text>
</g>
<!-- EditorService&#45;&gt;StreamsModule -->
<g id="edge19" class="edge">
<title>EditorService&#45;&gt;StreamsModule</title>
<path fill="none" stroke="#000000" d="M294,-122.0109C294,-144.4852 294,-180 294,-180 294,-180 1604.4365,-180 1604.4365,-180"/>
<polygon fill="#000000" stroke="#000000" points="1604.4365,-183.5001 1614.4365,-180 1604.4364,-176.5001 1604.4365,-183.5001"/>
</g>
<!-- ContentAssistService -->
<g id="node21" class="node">
<title>ContentAssistService</title>
<ellipse fill="#fdb462" stroke="#000000" cx="118" cy="-104" rx="94.3543" ry="18"/>
<text text-anchor="middle" x="118" y="-99.8" font-family="Times,serif" font-size="14.00" fill="#000000">ContentAssistService</text>
</g>
<!-- ContentAssistService&#45;&gt;StreamsModule -->
<g id="edge20" class="edge">
<title>ContentAssistService&#45;&gt;StreamsModule</title>
<path fill="none" stroke="#000000" d="M118,-122.1532C118,-145.7566 118,-184 118,-184 118,-184 1604.5744,-184 1604.5744,-184"/>
<polygon fill="#000000" stroke="#000000" points="1604.5744,-187.5001 1614.5744,-184 1604.5744,-180.5001 1604.5744,-187.5001"/>
</g>
</g>
</svg>
