<?xml version="1.0" encoding="UTF-8" standalone="no"?>
<!DOCTYPE svg PUBLIC "-//W3C//DTD SVG 1.1//EN"
 "http://www.w3.org/Graphics/SVG/1.1/DTD/svg11.dtd">
<!-- Generated by graphviz version 2.40.1 (20161225.0304)
 -->
<!-- Title: dependencies Pages: 1 -->
<svg width="4322pt" height="211pt"
 viewBox="0.00 0.00 4322.00 211.00" xmlns="http://www.w3.org/2000/svg" xmlns:xlink="http://www.w3.org/1999/xlink">
<g id="graph0" class="graph" transform="scale(1 1) rotate(0) translate(4 207)">
<title>dependencies</title>
<polygon fill="#ffffff" stroke="transparent" points="-4,4 -4,-207 4318,-207 4318,4 -4,4"/>
<text text-anchor="start" x="2136.0091" y="-42.4" font-family="sans-serif" font-weight="bold" font-size="14.00" fill="#000000">Legend</text>
<polygon fill="#ffffb3" stroke="transparent" points="1923,-10 1923,-30 1943,-30 1943,-10 1923,-10"/>
<text text-anchor="start" x="1946.629" y="-15.4" font-family="sans-serif" font-size="14.00" fill="#000000"> &#160;Declarations</text>
<polygon fill="#8dd3c7" stroke="transparent" points="2036,-10 2036,-30 2056,-30 2056,-10 2036,-10"/>
<text text-anchor="start" x="2059.7251" y="-15.4" font-family="sans-serif" font-size="14.00" fill="#000000"> &#160;Module</text>
<polygon fill="#80b1d3" stroke="transparent" points="2122,-10 2122,-30 2142,-30 2142,-10 2122,-10"/>
<text text-anchor="start" x="2145.7812" y="-15.4" font-family="sans-serif" font-size="14.00" fill="#000000"> &#160;Bootstrap</text>
<polygon fill="#fdb462" stroke="transparent" points="2219,-10 2219,-30 2239,-30 2239,-10 2219,-10"/>
<text text-anchor="start" x="2242.6732" y="-15.4" font-family="sans-serif" font-size="14.00" fill="#000000"> &#160;Providers</text>
<polygon fill="#fb8072" stroke="transparent" points="2315,-10 2315,-30 2335,-30 2335,-10 2315,-10"/>
<text text-anchor="start" x="2338.7258" y="-15.4" font-family="sans-serif" font-size="14.00" fill="#000000"> &#160;Exports</text>
<g id="clust1" class="cluster">
<title>cluster_TasksModule</title>
<polygon fill="none" stroke="#000000" stroke-dasharray="1,5" points="8,-70 8,-195 4306,-195 4306,-70 8,-70"/>
</g>
<g id="clust2" class="cluster">
<title>cluster_TasksModule_declarations</title>
<polygon fill="none" stroke="#000000" points="1383,-78 1383,-130 4298,-130 4298,-78 1383,-78"/>
</g>
<g id="clust18" class="cluster">
<title>cluster_TasksModule_imports</title>
<polygon fill="none" stroke="#000000" points="999,-78 999,-130 1375,-130 1375,-78 999,-78"/>
</g>
<g id="clust21" class="cluster">
<title>cluster_TasksModule_providers</title>
<polygon fill="none" stroke="#000000" points="16,-78 16,-130 991,-130 991,-78 16,-78"/>
</g>
<!-- TasksComponent -->
<g id="node1" class="node">
<title>TasksComponent</title>
<polygon fill="#ffffb3" stroke="#000000" points="4289.9888,-122 4176.0112,-122 4176.0112,-86 4289.9888,-86 4289.9888,-122"/>
<text text-anchor="middle" x="4233" y="-99.8" font-family="Times,serif" font-size="14.00" fill="#000000">TasksComponent</text>
</g>
<!-- TasksModule -->
<g id="node16" class="node">
<title>TasksModule</title>
<polygon fill="#8dd3c7" stroke="#000000" points="2102.2064,-187 2099.2064,-191 2078.2064,-191 2075.2064,-187 2009.7936,-187 2009.7936,-151 2102.2064,-151 2102.2064,-187"/>
<text text-anchor="middle" x="2056" y="-164.8" font-family="Times,serif" font-size="14.00" fill="#000000">TasksModule</text>
</g>
<!-- TasksComponent&#45;&gt;TasksModule -->
<g id="edge1" class="edge">
<title>TasksComponent&#45;&gt;TasksModule</title>
<path fill="none" stroke="#000000" d="M4233,-122.3802C4233,-146.2785 4233,-185 4233,-185 4233,-185 2112.2241,-185 2112.2241,-185"/>
<polygon fill="#000000" stroke="#000000" points="2112.2242,-181.5001 2102.2241,-185 2112.2241,-188.5001 2112.2242,-181.5001"/>
</g>
<!-- TaskAppsComponent -->
<g id="node2" class="node">
<title>TaskAppsComponent</title>
<polygon fill="#ffffb3" stroke="#000000" points="4158.0954,-122 4019.9046,-122 4019.9046,-86 4158.0954,-86 4158.0954,-122"/>
<text text-anchor="middle" x="4089" y="-99.8" font-family="Times,serif" font-size="14.00" fill="#000000">TaskAppsComponent</text>
</g>
<!-- TaskAppsComponent&#45;&gt;TasksModule -->
<g id="edge2" class="edge">
<title>TaskAppsComponent&#45;&gt;TasksModule</title>
<path fill="none" stroke="#000000" d="M4089,-122.0908C4089,-145.1328 4089,-182 4089,-182 4089,-182 2112.2818,-182 2112.2818,-182"/>
<polygon fill="#000000" stroke="#000000" points="2112.2818,-178.5001 2102.2818,-182 2112.2818,-185.5001 2112.2818,-178.5001"/>
</g>
<!-- TaskDefinitionsComponent -->
<g id="node3" class="node">
<title>TaskDefinitionsComponent</title>
<polygon fill="#ffffb3" stroke="#000000" points="4001.5336,-122 3830.4664,-122 3830.4664,-86 4001.5336,-86 4001.5336,-122"/>
<text text-anchor="middle" x="3916" y="-99.8" font-family="Times,serif" font-size="14.00" fill="#000000">TaskDefinitionsComponent</text>
</g>
<!-- TaskDefinitionsComponent&#45;&gt;TasksModule -->
<g id="edge3" class="edge">
<title>TaskDefinitionsComponent&#45;&gt;TasksModule</title>
<path fill="none" stroke="#000000" d="M3916,-122.1554C3916,-144.3519 3916,-179 3916,-179 3916,-179 2112.4418,-179 2112.4418,-179"/>
<polygon fill="#000000" stroke="#000000" points="2112.4419,-175.5001 2102.4418,-179 2112.4418,-182.5001 2112.4419,-175.5001"/>
</g>
<!-- TaskCreateComposedTaskComponent -->
<g id="node4" class="node">
<title>TaskCreateComposedTaskComponent</title>
<polygon fill="#ffffb3" stroke="#000000" points="3812.1741,-122 3579.8259,-122 3579.8259,-86 3812.1741,-86 3812.1741,-122"/>
<text text-anchor="middle" x="3696" y="-99.8" font-family="Times,serif" font-size="14.00" fill="#000000">TaskCreateComposedTaskComponent</text>
</g>
<!-- TaskCreateComposedTaskComponent&#45;&gt;TasksModule -->
<g id="edge4" class="edge">
<title>TaskCreateComposedTaskComponent&#45;&gt;TasksModule</title>
<path fill="none" stroke="#000000" d="M3696,-122.1686C3696,-143.498 3696,-176 3696,-176 3696,-176 2112.4403,-176 2112.4403,-176"/>
<polygon fill="#000000" stroke="#000000" points="2112.4403,-172.5001 2102.4403,-176 2112.4402,-179.5001 2112.4403,-172.5001"/>
</g>
<!-- TaskCreateComposedTaskDialogComponent -->
<g id="node5" class="node">
<title>TaskCreateComposedTaskDialogComponent</title>
<polygon fill="#ffffb3" stroke="#000000" points="3562.2765,-122 3291.7235,-122 3291.7235,-86 3562.2765,-86 3562.2765,-122"/>
<text text-anchor="middle" x="3427" y="-99.8" font-family="Times,serif" font-size="14.00" fill="#000000">TaskCreateComposedTaskDialogComponent</text>
</g>
<!-- TaskCreateComposedTaskDialogComponent&#45;&gt;TasksModule -->
<g id="edge5" class="edge">
<title>TaskCreateComposedTaskDialogComponent&#45;&gt;TasksModule</title>
<path fill="none" stroke="#000000" d="M3472.0461,-122.0267C3472.0461,-142.7672 3472.0461,-174 3472.0461,-174 3472.0461,-174 2112.3093,-174 2112.3093,-174"/>
<polygon fill="#000000" stroke="#000000" points="2112.3093,-170.5001 2102.3093,-174 2112.3093,-177.5001 2112.3093,-170.5001"/>
</g>
<!-- TaskCreateComposedTaskDialogComponent&#45;&gt;TasksModule -->
<g id="edge14" class="edge">
<title>TaskCreateComposedTaskDialogComponent&#45;&gt;TasksModule</title>
<path fill="none" stroke="#000000" d="M3381.9539,-122.308C3381.9539,-142.1455 3381.9539,-171 3381.9539,-171 3381.9539,-171 2112.4139,-171 2112.4139,-171"/>
<polygon fill="#000000" stroke="#000000" points="2112.414,-167.5001 2102.4139,-171 2112.4139,-174.5001 2112.414,-167.5001"/>
</g>
<!-- TaskExecutionsComponent -->
<g id="node6" class="node">
<title>TaskExecutionsComponent</title>
<polygon fill="#ffffb3" stroke="#000000" points="3273.252,-122 3102.748,-122 3102.748,-86 3273.252,-86 3273.252,-122"/>
<text text-anchor="middle" x="3188" y="-99.8" font-family="Times,serif" font-size="14.00" fill="#000000">TaskExecutionsComponent</text>
</g>
<!-- TaskExecutionsComponent&#45;&gt;TasksModule -->
<g id="edge6" class="edge">
<title>TaskExecutionsComponent&#45;&gt;TasksModule</title>
<path fill="none" stroke="#000000" d="M3188,-122.1686C3188,-141.0898 3188,-168 3188,-168 3188,-168 2112.1313,-168 2112.1313,-168"/>
<polygon fill="#000000" stroke="#000000" points="2112.1314,-164.5001 2102.1313,-168 2112.1313,-171.5001 2112.1314,-164.5001"/>
</g>
<!-- TaskExecutionsDetailsComponent -->
<g id="node7" class="node">
<title>TaskExecutionsDetailsComponent</title>
<polygon fill="#ffffb3" stroke="#000000" points="3084.4044,-122 2873.5956,-122 2873.5956,-86 3084.4044,-86 3084.4044,-122"/>
<text text-anchor="middle" x="2979" y="-99.8" font-family="Times,serif" font-size="14.00" fill="#000000">TaskExecutionsDetailsComponent</text>
</g>
<!-- TaskExecutionsDetailsComponent&#45;&gt;TasksModule -->
<g id="edge7" class="edge">
<title>TaskExecutionsDetailsComponent&#45;&gt;TasksModule</title>
<path fill="none" stroke="#000000" d="M2979,-122.302C2979,-140.2699 2979,-165 2979,-165 2979,-165 2112.4043,-165 2112.4043,-165"/>
<polygon fill="#000000" stroke="#000000" points="2112.4043,-161.5001 2102.4043,-165 2112.4042,-168.5001 2112.4043,-161.5001"/>
</g>
<!-- TaskAppDetailsComponent -->
<g id="node8" class="node">
<title>TaskAppDetailsComponent</title>
<polygon fill="#ffffb3" stroke="#000000" points="2856.3033,-122 2683.6967,-122 2683.6967,-86 2856.3033,-86 2856.3033,-122"/>
<text text-anchor="middle" x="2770" y="-99.8" font-family="Times,serif" font-size="14.00" fill="#000000">TaskAppDetailsComponent</text>
</g>
<!-- TaskAppDetailsComponent&#45;&gt;TasksModule -->
<g id="edge8" class="edge">
<title>TaskAppDetailsComponent&#45;&gt;TasksModule</title>
<path fill="none" stroke="#000000" d="M2770,-122.0225C2770,-139.3734 2770,-163 2770,-163 2770,-163 2112.2974,-163 2112.2974,-163"/>
<polygon fill="#000000" stroke="#000000" points="2112.2974,-159.5001 2102.2974,-163 2112.2974,-166.5001 2112.2974,-159.5001"/>
</g>
<!-- TaskCreateComponent -->
<g id="node9" class="node">
<title>TaskCreateComponent</title>
<polygon fill="#ffffb3" stroke="#000000" points="2665.5758,-122 2520.4242,-122 2520.4242,-86 2665.5758,-86 2665.5758,-122"/>
<text text-anchor="middle" x="2593" y="-99.8" font-family="Times,serif" font-size="14.00" fill="#000000">TaskCreateComponent</text>
</g>
<!-- TaskCreateComponent&#45;&gt;TasksModule -->
<g id="edge9" class="edge">
<title>TaskCreateComponent&#45;&gt;TasksModule</title>
<path fill="none" stroke="#000000" d="M2593,-122.027C2593,-138.3976 2593,-160 2593,-160 2593,-160 2112.2491,-160 2112.2491,-160"/>
<polygon fill="#000000" stroke="#000000" points="2112.2491,-156.5001 2102.2491,-160 2112.2491,-163.5001 2112.2491,-156.5001"/>
</g>
<!-- TaskBulkDefineComponent -->
<g id="node10" class="node">
<title>TaskBulkDefineComponent</title>
<polygon fill="#ffffb3" stroke="#000000" points="2502.8585,-122 2329.1415,-122 2329.1415,-86 2502.8585,-86 2502.8585,-122"/>
<text text-anchor="middle" x="2416" y="-99.8" font-family="Times,serif" font-size="14.00" fill="#000000">TaskBulkDefineComponent</text>
</g>
<!-- TaskBulkDefineComponent&#45;&gt;TasksModule -->
<g id="edge10" class="edge">
<title>TaskBulkDefineComponent&#45;&gt;TasksModule</title>
<path fill="none" stroke="#000000" d="M2416,-122.2396C2416,-137.5706 2416,-157 2416,-157 2416,-157 2112.3267,-157 2112.3267,-157"/>
<polygon fill="#000000" stroke="#000000" points="2112.3267,-153.5001 2102.3267,-157 2112.3267,-160.5001 2112.3267,-153.5001"/>
</g>
<!-- TaskLaunchComponent -->
<g id="node11" class="node">
<title>TaskLaunchComponent</title>
<polygon fill="#ffffb3" stroke="#000000" points="2311.0267,-122 2160.9733,-122 2160.9733,-86 2311.0267,-86 2311.0267,-122"/>
<text text-anchor="middle" x="2236" y="-99.8" font-family="Times,serif" font-size="14.00" fill="#000000">TaskLaunchComponent</text>
</g>
<!-- TaskLaunchComponent&#45;&gt;TasksModule -->
<g id="edge11" class="edge">
<title>TaskLaunchComponent&#45;&gt;TasksModule</title>
<path fill="none" stroke="#000000" d="M2236,-122.0511C2236,-136.373 2236,-154 2236,-154 2236,-154 2112.3545,-154 2112.3545,-154"/>
<polygon fill="#000000" stroke="#000000" points="2112.3545,-150.5001 2102.3545,-154 2112.3544,-157.5001 2112.3545,-150.5001"/>
</g>
<!-- TaskGraphViewComponent -->
<g id="node12" class="node">
<title>TaskGraphViewComponent</title>
<polygon fill="#ffffb3" stroke="#000000" points="2142.8445,-122 1969.1555,-122 1969.1555,-86 2142.8445,-86 2142.8445,-122"/>
<text text-anchor="middle" x="2056" y="-99.8" font-family="Times,serif" font-size="14.00" fill="#000000">TaskGraphViewComponent</text>
</g>
<!-- TaskGraphViewComponent&#45;&gt;TasksModule -->
<g id="edge12" class="edge">
<title>TaskGraphViewComponent&#45;&gt;TasksModule</title>
<path fill="none" stroke="#000000" d="M2056,-122.1061C2056,-122.1061 2056,-140.991 2056,-140.991"/>
<polygon fill="#000000" stroke="#000000" points="2052.5001,-140.9909 2056,-150.991 2059.5001,-140.991 2052.5001,-140.9909"/>
</g>
<!-- NodeComponent -->
<g id="node13" class="node">
<title>NodeComponent</title>
<polygon fill="#ffffb3" stroke="#000000" points="1950.6541,-122 1839.3459,-122 1839.3459,-86 1950.6541,-86 1950.6541,-122"/>
<text text-anchor="middle" x="1895" y="-99.8" font-family="Times,serif" font-size="14.00" fill="#000000">NodeComponent</text>
</g>
<!-- NodeComponent&#45;&gt;TasksModule -->
<g id="edge13" class="edge">
<title>NodeComponent&#45;&gt;TasksModule</title>
<path fill="none" stroke="#000000" d="M1895,-122.0511C1895,-136.373 1895,-154 1895,-154 1895,-154 1999.8639,-154 1999.8639,-154"/>
<polygon fill="#000000" stroke="#000000" points="1999.8639,-157.5001 2009.8639,-154 1999.8638,-150.5001 1999.8639,-157.5001"/>
</g>
<!-- TaskPropertiesDialogComponent -->
<g id="node14" class="node">
<title>TaskPropertiesDialogComponent</title>
<polygon fill="#ffffb3" stroke="#000000" points="1820.9058,-122 1617.0942,-122 1617.0942,-86 1820.9058,-86 1820.9058,-122"/>
<text text-anchor="middle" x="1719" y="-99.8" font-family="Times,serif" font-size="14.00" fill="#000000">TaskPropertiesDialogComponent</text>
</g>
<!-- TaskPropertiesDialogComponent&#45;&gt;TasksModule -->
<g id="edge15" class="edge">
<title>TaskPropertiesDialogComponent&#45;&gt;TasksModule</title>
<path fill="none" stroke="#000000" d="M1719,-122.2396C1719,-137.5706 1719,-157 1719,-157 1719,-157 1999.8482,-157 1999.8482,-157"/>
<polygon fill="#000000" stroke="#000000" points="1999.8482,-160.5001 2009.8482,-157 1999.8482,-153.5001 1999.8482,-160.5001"/>
</g>
<!-- ComposedTaskDetailsComponent -->
<g id="node15" class="node">
<title>ComposedTaskDetailsComponent</title>
<polygon fill="#ffffb3" stroke="#000000" points="1599.0828,-122 1390.9172,-122 1390.9172,-86 1599.0828,-86 1599.0828,-122"/>
<text text-anchor="middle" x="1495" y="-99.8" font-family="Times,serif" font-size="14.00" fill="#000000">ComposedTaskDetailsComponent</text>
</g>
<!-- ComposedTaskDetailsComponent&#45;&gt;TasksModule -->
<g id="edge16" class="edge">
<title>ComposedTaskDetailsComponent&#45;&gt;TasksModule</title>
<path fill="none" stroke="#000000" d="M1495,-122.027C1495,-138.3976 1495,-160 1495,-160 1495,-160 1999.6137,-160 1999.6137,-160"/>
<polygon fill="#000000" stroke="#000000" points="1999.6138,-163.5001 2009.6137,-160 1999.6137,-156.5001 1999.6138,-163.5001"/>
</g>
<!-- TasksRoutingModule -->
<g id="node17" class="node">
<title>TasksRoutingModule</title>
<polygon fill="#8dd3c7" stroke="#000000" points="1366.8244,-122 1363.8244,-126 1342.8244,-126 1339.8244,-122 1229.1756,-122 1229.1756,-86 1366.8244,-86 1366.8244,-122"/>
<text text-anchor="middle" x="1298" y="-99.8" font-family="Times,serif" font-size="14.00" fill="#000000">TasksRoutingModule</text>
</g>
<!-- TasksRoutingModule&#45;&gt;TasksModule -->
<g id="edge17" class="edge">
<title>TasksRoutingModule&#45;&gt;TasksModule</title>
<path fill="none" stroke="#000000" d="M1298,-122.0225C1298,-139.3734 1298,-163 1298,-163 1298,-163 1999.7247,-163 1999.7247,-163"/>
<polygon fill="#000000" stroke="#000000" points="1999.7248,-166.5001 2009.7247,-163 1999.7247,-159.5001 1999.7248,-166.5001"/>
</g>
<!-- SharedModule -->
<g id="node18" class="node">
<title>SharedModule</title>
<polygon fill="#8dd3c7" stroke="#000000" points="1211.4231,-122 1208.4231,-126 1187.4231,-126 1184.4231,-122 1112.5769,-122 1112.5769,-86 1211.4231,-86 1211.4231,-122"/>
<text text-anchor="middle" x="1162" y="-99.8" font-family="Times,serif" font-size="14.00" fill="#000000">SharedModule</text>
</g>
<!-- SharedModule&#45;&gt;TasksModule -->
<g id="edge18" class="edge">
<title>SharedModule&#45;&gt;TasksModule</title>
<path fill="none" stroke="#000000" d="M1162,-122.302C1162,-140.2699 1162,-165 1162,-165 1162,-165 1999.8172,-165 1999.8172,-165"/>
<polygon fill="#000000" stroke="#000000" points="1999.8173,-168.5001 2009.8172,-165 1999.8172,-161.5001 1999.8173,-168.5001"/>
</g>
<!-- AuthModule -->
<g id="node19" class="node">
<title>AuthModule</title>
<polygon fill="#8dd3c7" stroke="#000000" points="1094.5482,-122 1091.5482,-126 1070.5482,-126 1067.5482,-122 1007.4518,-122 1007.4518,-86 1094.5482,-86 1094.5482,-122"/>
<text text-anchor="middle" x="1051" y="-99.8" font-family="Times,serif" font-size="14.00" fill="#000000">AuthModule</text>
</g>
<!-- AuthModule&#45;&gt;TasksModule -->
<g id="edge19" class="edge">
<title>AuthModule&#45;&gt;TasksModule</title>
<path fill="none" stroke="#000000" d="M1051,-122.1686C1051,-141.0898 1051,-168 1051,-168 1051,-168 1999.8746,-168 1999.8746,-168"/>
<polygon fill="#000000" stroke="#000000" points="1999.8746,-171.5001 2009.8746,-168 1999.8745,-164.5001 1999.8746,-171.5001"/>
</g>
<!-- TasksService -->
<g id="node20" class="node">
<title>TasksService</title>
<ellipse fill="#fdb462" stroke="#000000" cx="920" cy="-104" rx="62.5354" ry="18"/>
<text text-anchor="middle" x="920" y="-99.8" font-family="Times,serif" font-size="14.00" fill="#000000">TasksService</text>
</g>
<!-- TasksService&#45;&gt;TasksModule -->
<g id="edge20" class="edge">
<title>TasksService&#45;&gt;TasksModule</title>
<path fill="none" stroke="#000000" d="M920,-122.308C920,-142.1455 920,-171 920,-171 920,-171 1999.7056,-171 1999.7056,-171"/>
<polygon fill="#000000" stroke="#000000" points="1999.7057,-174.5001 2009.7056,-171 1999.7056,-167.5001 1999.7057,-174.5001"/>
</g>
<!-- MetamodelService -->
<g id="node21" class="node">
<title>MetamodelService</title>
<ellipse fill="#fdb462" stroke="#000000" cx="756" cy="-104" rx="83.945" ry="18"/>
<text text-anchor="middle" x="756" y="-99.8" font-family="Times,serif" font-size="14.00" fill="#000000">MetamodelService</text>
</g>
<!-- MetamodelService&#45;&gt;TasksModule -->
<g id="edge21" class="edge">
<title>MetamodelService&#45;&gt;TasksModule</title>
<path fill="none" stroke="#000000" d="M756,-122.0267C756,-142.7672 756,-174 756,-174 756,-174 1999.7323,-174 1999.7323,-174"/>
<polygon fill="#000000" stroke="#000000" points="1999.7323,-177.5001 2009.7323,-174 1999.7323,-170.5001 1999.7323,-177.5001"/>
</g>
<!-- RenderService -->
<g id="node22" class="node">
<title>RenderService</title>
<ellipse fill="#fdb462" stroke="#000000" cx="586" cy="-104" rx="67.7548" ry="18"/>
<text text-anchor="middle" x="586" y="-99.8" font-family="Times,serif" font-size="14.00" fill="#000000">RenderService</text>
</g>
<!-- RenderService&#45;&gt;TasksModule -->
<g id="edge22" class="edge">
<title>RenderService&#45;&gt;TasksModule</title>
<path fill="none" stroke="#000000" d="M586,-122.1686C586,-143.498 586,-176 586,-176 586,-176 1999.5779,-176 1999.5779,-176"/>
<polygon fill="#000000" stroke="#000000" points="1999.578,-179.5001 2009.5779,-176 1999.5779,-172.5001 1999.578,-179.5001"/>
</g>
<!-- EditorService -->
<g id="node23" class="node">
<title>EditorService</title>
<ellipse fill="#fdb462" stroke="#000000" cx="436" cy="-104" rx="64.261" ry="18"/>
<text text-anchor="middle" x="436" y="-99.8" font-family="Times,serif" font-size="14.00" fill="#000000">EditorService</text>
</g>
<!-- EditorService&#45;&gt;TasksModule -->
<g id="edge23" class="edge">
<title>EditorService&#45;&gt;TasksModule</title>
<path fill="none" stroke="#000000" d="M436,-122.1554C436,-144.3519 436,-179 436,-179 436,-179 1999.6958,-179 1999.6958,-179"/>
<polygon fill="#000000" stroke="#000000" points="1999.6958,-182.5001 2009.6958,-179 1999.6958,-175.5001 1999.6958,-182.5001"/>
</g>
<!-- ToolsService -->
<g id="node24" class="node">
<title>ToolsService</title>
<ellipse fill="#fdb462" stroke="#000000" cx="292" cy="-104" rx="61.975" ry="18"/>
<text text-anchor="middle" x="292" y="-99.8" font-family="Times,serif" font-size="14.00" fill="#000000">ToolsService</text>
</g>
<!-- ToolsService&#45;&gt;TasksModule -->
<g id="edge24" class="edge">
<title>ToolsService&#45;&gt;TasksModule</title>
<path fill="none" stroke="#000000" d="M292,-122.0908C292,-145.1328 292,-182 292,-182 292,-182 1999.724,-182 1999.724,-182"/>
<polygon fill="#000000" stroke="#000000" points="1999.724,-185.5001 2009.724,-182 1999.724,-178.5001 1999.724,-185.5001"/>
</g>
<!-- ContentAssistService -->
<g id="node25" class="node">
<title>ContentAssistService</title>
<ellipse fill="#fdb462" stroke="#000000" cx="118" cy="-104" rx="94.3543" ry="18"/>
<text text-anchor="middle" x="118" y="-99.8" font-family="Times,serif" font-size="14.00" fill="#000000">ContentAssistService</text>
</g>
<!-- ContentAssistService&#45;&gt;TasksModule -->
<g id="edge25" class="edge">
<title>ContentAssistService&#45;&gt;TasksModule</title>
<path fill="none" stroke="#000000" d="M118,-122.3802C118,-146.2785 118,-185 118,-185 118,-185 1999.5311,-185 1999.5311,-185"/>
<polygon fill="#000000" stroke="#000000" points="1999.5312,-188.5001 2009.5311,-185 1999.5311,-181.5001 1999.5312,-188.5001"/>
</g>
</g>
</svg>
